# xmcd CD database file
#
# Track frame offsets:
#	150
#	36670
#	57107
#	77467
#	99010
#	122260
#	141915
#	164245
#	182275
#	202137
#	217470
#	246010
#	264940
#	286782
#	302972
#	315440
#
# Disc length: 4412 seconds
#
# Revision: 0
# Processed by: cddbd v1.5.1PL0 Copyright (c) Steve Scherf et al.
# Submitted via: CDex 1.51
#
DISCID=e2113a10
DTITLE=高倉健 - 全曲集
DYEAR=1900
DGENRE=Other
TTITLE0=唐獅子牡丹
TTITLE1=男の誓い
TTITLE2=野暮は言うなよ
TTITLE3=男の裏町
TTITLE4=未練じゃないか
TTITLE5=霧の波止場
TTITLE6=望郷子守唄
TTITLE7=男なら
TTITLE8=泣かせるぜ
TTITLE9=花と竜
TTITLE10=俺が選んだ道
TTITLE11=横顔
TTITLE12=男涙の雨が降る
TTITLE13=網走番外地
TTITLE14=愛のブルース
TTITLE15=その灯を消すな
EXTD=
EXTT0=
EXTT1=
EXTT2=
EXTT3=
EXTT4=
EXTT5=
EXTT6=
EXTT7=
EXTT8=
EXTT9=
EXTT10=
EXTT11=
EXTT12=
EXTT13=
EXTT14=
EXTT15=
PLAYORDER=
